/vscmnt/brussel_pixiu_data/_data_brussel/112/vsc11236/PredSimResults/SUBJ10opt3D/expIG/worker_12.mot
version=1
nRows=9
nColumns=50
inDegrees=yes
endheader
                time	         pelvis_tilt	         pelvis_list	     pelvis_rotation	           pelvis_tx	           pelvis_ty	           pelvis_tz	       hip_flexion_r	     hip_adduction_r	      hip_rotation_r	        knee_angle_r	       ankle_angle_r	         mtp_angle_r	       hip_flexion_l	     hip_adduction_l	      hip_rotation_l	        knee_angle_l	       ankle_angle_l	         mtp_angle_l	    lumbar_extension	      lumbar_bending	     lumbar_rotation	 ercspn_r/activation	 intobl_r/activation	 extobl_r/activation	    abd_r/activation	    add_r/activation	hamstrings_r/activation	bifemsh_r/activation	glut_max_r/activation	iliopsoas_r/activation	rect_fem_r/activation	  vasti_r/activation	gastroc_r/activation	 soleus_r/activation	tib_ant_r/activation	 ercspn_l/activation	 intobl_l/activation	 extobl_l/activation	    abd_l/activation	    add_l/activation	hamstrings_l/activation	bifemsh_l/activation	glut_max_l/activation	iliopsoas_l/activation	rect_fem_l/activation	  vasti_l/activation	gastroc_l/activation	 soleus_l/activation	tib_ant_l/activation	
          1.10408796	        -10.44350662	         -1.64736015	         13.45280658	          1.87694953	          0.78684752	         -0.01162846	         43.67614271	         -5.83868798	         -6.54107296	         -9.90749210	          0.01643387	          0.25490571	         -4.06059582	         -2.04798843	          8.49447293	        -26.51872218	         10.80172477	         37.99528842	         -8.35811183	         -1.96030170	         -2.19124879	          0.14604248	          0.12077788	          0.00999999	          0.00999999	          0.07851150	          0.04896816	          0.27381290	          0.06833380	          0.09742177	          0.01659858	          0.00999999	          0.07348383	          0.00999999	          0.31819506	          0.09292003	          0.00999999	          0.00999999	          0.04161884	          0.05898799	          0.06819305	          0.41593252	          0.01726693	          0.00999999	          0.06820539	          0.06000870	          0.17865213	          0.30898792	          0.01702224	
          1.11512884	        -10.36212648	         -1.71955896	         13.76753794	          1.90065909	          0.78700105	         -0.01119426	         43.69250375	         -5.82370485	         -7.01622312	        -13.03403914	         -0.04364565	          0.24997917	         -5.68090058	         -2.63942079	          8.14395138	        -25.99581066	          7.94704895	         38.93415175	         -8.03206580	         -1.56970645	         -2.45362451	          0.13352392	          0.10200708	          0.00999999	          0.00999999	          0.06630956	          0.06060163	          0.23125803	          0.14158847	          0.08228088	          0.01401889	          0.00999999	          0.06206328	          0.01184013	          0.34721166	          0.10767829	          0.00999999	          0.00999999	          0.03515061	          0.10420511	          0.05759477	          0.35129001	          0.01458337	          0.03069549	          0.05760519	          0.05068239	          0.16406486	          0.26096630	          0.01437671	
          1.12616972	        -10.27415910	         -1.76558814	         14.03767007	          1.92440416	          0.78706547	         -0.01069396	         43.64925065	         -5.78968286	         -7.38202363	        -16.13518145	         -0.29666342	          0.23886924	         -7.03770954	         -3.16848272	          7.74527816	        -25.97174974	          5.27270433	         39.03663923	         -7.72561626	         -1.19823206	         -2.69582359	          0.12157237	          0.08615357	          0.00999999	          0.02633102	          0.09769267	          0.06079648	          0.19531686	          0.22984841	          0.06949313	          0.01184013	          0.00999999	          0.05241766	          0.00999999	          0.42706717	          0.12220361	          0.00999999	          0.00999999	          0.02968765	          0.16712860	          0.04864363	          0.29669397	          0.01231689	          0.16487214	          0.04865243	          0.04280554	          0.14736607	          0.22040799	          0.01214234	
          1.13721060	        -10.18096781	         -1.78177796	         14.25374624	          1.94788382	          0.78721984	         -0.01011911	         43.65162781	         -5.75167302	         -7.68520970	        -19.26909329	         -0.51709790	          0.21119197	         -7.98330441	         -3.60470579	          7.35532850	        -26.64718443	          2.68343122	         38.43607971	         -7.47639080	         -0.84615661	         -2.90596191	          0.15660533	          0.07276393	          0.00999999	          0.07493140	          0.17629894	          0.06023080	          0.16496153	          0.32436995	          0.05869279	          0.00999999	          0.00999999	          0.04427112	          0.00999999	          0.44456994	          0.16835906	          0.00999999	          0.00999999	          0.02507372	          0.26402903	          0.04108364	          0.25058302	          0.01709807	          0.34398383	          0.04109107	          0.03615288	          0.12458114	          0.18615310	          0.01025523	
          1.14825148	        -10.07977653	         -1.77254683	         14.41821693	          1.97097768	          0.78761410	         -0.00948549	         43.69542947	         -5.69036854	         -7.85908039	        -22.50231094	         -0.33058956	          0.18416741	         -8.39828298	         -3.93694777	          7.02925505	        -28.17449476	          0.07122938	         37.21364562	         -7.29079874	         -0.50681002	         -3.08181853	          0.15992125	          0.06145527	          0.00999999	          0.12249819	          0.23471593	          0.05086998	          0.13932389	          0.38326259	          0.04957100	          0.00999999	          0.00999999	          0.03739069	          0.00999999	          0.38827537	          0.23273713	          0.00999999	          0.00999999	          0.02117686	          0.25902416	          0.03469859	          0.21163844	          0.01659858	          0.44335714	          0.03470487	          0.03053415	          0.10521925	          0.15722195	          0.00999999	
          1.15929236	         -9.96714614	         -1.76056115	         14.54163932	          1.99364122	          0.78835837	         -0.00877116	         43.75420057	         -5.55211271	         -7.81498836	        -25.78676437	          0.31602221	          0.16708160	         -8.22972185	         -4.19216422	          6.80656240	        -30.56027464	         -2.70165819	         35.41654739	         -7.15905400	         -0.16649082	         -3.23368270	          0.19616831	          0.05190414	          0.00999999	          0.17645972	          0.28942858	          0.04296398	          0.11767075	          0.43210042	          0.04186688	          0.00999999	          0.00999999	          0.03157958	          0.01951472	          0.32793121	          0.31399932	          0.03524953	          0.00999999	          0.01788564	          0.21876770	          0.02930588	          0.17874647	          0.01401889	          0.47445450	          0.02931118	          0.02578866	          0.08886651	          0.13278717	          0.00999999	
          1.17033324	         -9.84163450	         -1.74746992	         14.63117468	          2.01597007	          0.78947454	         -0.00797643	         43.74987770	         -5.32037934	         -7.56993537	        -29.03463258	          1.61085364	          0.26819572	         -7.53426436	         -4.37885418	          6.71222605	        -33.61604537	         -5.81293709	         33.09061054	         -7.05148406	          0.16038085	         -3.36496961	          0.20811815	          0.04383741	          0.00999999	          0.22136153	          0.31664516	          0.03628670	          0.09938284	          0.43287489	          0.03536011	          0.00999999	          0.00999999	          0.02667161	          0.09589014	          0.27696550	          0.37035870	          0.02977120	          0.00999999	          0.01510593	          0.18476773	          0.02475128	          0.15096643	          0.01184014	          0.42448405	          0.02475576	          0.02178069	          0.07505525	          0.11214993	          0.00999999	
          1.18137412	         -9.70521883	         -1.72956518	         14.67558071	          2.03803174	          0.79093118	         -0.00712917	         43.62121558	         -5.02023299	         -7.24964532	        -32.09339119	          3.24607082	          0.66227863	         -6.42741585	         -4.49215093	          6.73143473	        -37.10266495	         -9.07897810	         29.95249993	         -6.94208608	          0.46294830	         -3.46907584	          0.19568610	          0.03702439	          0.00999999	          0.24523711	          0.30959508	          0.03064717	          0.08393717	          0.40424577	          0.02986458	          0.00999999	          0.02693255	          0.02252642	          0.13345412	          0.23392067	          0.40755119	          0.03395794	          0.00999999	          0.02118192	          0.15605189	          0.02090454	          0.12750386	          0.00999999	          0.35851249	          0.02090832	          0.01839563	          0.06339047	          0.09472006	          0.09433269	
          1.19241500	         -9.56549783	         -1.71463053	         14.67069477	          2.05985481	          0.79262630	         -0.00626289	         43.27721120	         -4.65899838	         -6.94125581	        -34.73051438	          4.85349909	          1.44914454	         -5.06615673	         -4.53501976	          6.80099835	        -40.76836859	        -11.62447313	         26.11548780	         -6.80734039	          0.74347227	         -3.54590415	          0.18558062	          0.03127021	          0.00999999	          0.27073886	          0.27018427	          0.04603274	          0.07089201	          0.34714653	          0.02522315	          0.00999999	          0.10924203	          0.01902546	          0.18350838	          0.19756569	          0.40742030	          0.03938123	          0.00999999	          0.02232757	          0.13179895	          0.01765564	          0.19813636	          0.00999999	          0.30279397	          0.01765883	          0.01553666	          0.06746409	          0.07999906	          0.12001296	
